# xmcd
#
# Track frame offsets:
# 150
# 16698
# 26871
# 35844
# 48717
# 62415
# 77838
# 96186
# 114309
# 126357
# 139530
#
# Disc length: 2052 seconds
#
#
# Revision: 0
# Processed by: cddbd v1.5.2PL0 Copyright (c) Steve Scherf et al.
# Submitted via: FreeRIP 2.941 
#
DISCID=9008020b
DTITLE=David Hartley - Arkansas Traveller
DYEAR=1900
DGENRE=
TTITLE0=The Blame
TTITLE1=Arkansas Traveller
TTITLE2=Ballad of Jed Clampet
TTITLE3=Old Cow Hand
TTITLE4=I Couldn't Leave You If I Tried
TTITLE5=Cold Cold Heart
TTITLE6=Cottage In The Country
TTITLE7=Together Again
TTITLE8=Do I Do It To You Too?
TTITLE9=Kiss An Angel Goodmorning
TTITLE10=Heartbroke
EXTD=
EXTT0=
EXTT1=
EXTT2=
EXTT3=
EXTT4=
EXTT5=
EXTT6=
EXTT7=
EXTT8=
EXTT9=
EXTT10=
PLAYORDER=
